# xmcd CD database file
#
# Track frame offsets:
#	150
#	17695
#	35400
#	63135
#	84712
#	99802
#	116600
#
# Disc length: 1707 seconds
#
# Revision: 1
# Processed by: cddbd v1.5.1PL0 Copyright (c) Steve Scherf et al.
# Submitted via: CDex 1.51
#
DISCID=4906a907
DTITLE=Suzuki Kazuhiro - Organ Mania
DYEAR=2004
DGENRE=Jazz
TTITLE0=I Wish - Stevie Wonder
TTITLE1=When A Man Loves A Woman - Percy Sledge
TTITLE2=Pin Stripe - Suzuki Kazuhiro
TTITLE3=San Juan Sunset - Deodato
TTITLE4=Confirmation - Charlie Parker
TTITLE5=Isn't She Lovely? "vocal version" - Stevie Wonder
TTITLE6=Isn't She Lovely? -Interlude- "instrument version"
EXTD=YEAR: 2004
EXTT0=
EXTT1=
EXTT2=
EXTT3=
EXTT4=
EXTT5=
EXTT6=
PLAYORDER=
